<svg width="44" height="31" viewBox="0 0 44 31" fill="none" xmlns="http://www.w3.org/2000/svg">
<path fill-rule="evenodd" clip-rule="evenodd" d="M9.65845 11.9027C14.9691 11.9027 19.2741 16.1758 19.2741 21.4485C19.2741 26.7196 14.9691 30.9931 9.65845 30.9931C4.34797 30.9931 0.0429109 26.7196 0.0429109 21.4485L0 20.0842C0 9.54124 8.61007 0.993774 19.2312 0.993774V6.44739C15.562 6.44739 12.1124 7.86626 9.51792 10.4425C9.0185 10.9378 8.56269 11.4661 8.15163 12.0213C8.64259 11.9452 9.14578 11.9027 9.65845 11.9027ZM34.3844 11.9027C39.6949 11.9027 43.9999 16.1758 43.9999 21.4485C43.9999 26.7196 39.6949 30.9931 34.3844 30.9931C29.0738 30.9931 24.7687 26.7196 24.7687 21.4485L24.7258 20.0842C24.7258 9.54124 33.336 0.993774 43.957 0.993774V6.44739C40.2879 6.44739 36.8383 7.86626 34.2438 10.4425C33.7443 10.9378 33.2886 11.4661 32.8774 12.0213C33.3684 11.9452 33.8715 11.9027 34.3844 11.9027Z" fill="#18CFAB"/>
</svg>
