<svg width="88" height="43" viewBox="0 0 88 43" fill="none" xmlns="http://www.w3.org/2000/svg">
<g clip-path="url(#clip0_1_233)">
<rect x="1" y="2" width="41" height="40" rx="20" stroke="#18CFAB"/>
<path fill-rule="evenodd" clip-rule="evenodd" d="M26.9131 17.7281L25.0948 15.8912C24.2902 15.0808 22.983 15.0759 22.1768 15.8826L20.1592 17.8925C19.3516 18.6988 19.3482 20.0103 20.1505 20.8207L21.3035 19.6889C21.1868 19.3283 21.3304 18.9152 21.6159 18.6294L22.8995 17.3518C23.3061 16.9462 23.9584 16.9491 24.3595 17.3543L25.4513 18.458C25.8528 18.8628 25.8511 19.5171 25.447 19.9231L24.1634 21.2023C23.8918 21.4729 23.4461 21.6216 23.1002 21.5262L21.9709 22.6588C22.7745 23.4717 24.0803 23.4746 24.8889 22.6683L26.9039 20.6592C27.7141 19.8525 27.7167 18.5398 26.9131 17.7281ZM19.5261 25.0917C19.6219 25.4441 19.4686 25.8997 19.1909 26.1777L17.9923 27.3751C17.5807 27.7845 16.916 27.7832 16.5067 27.3689L15.393 26.2475C14.9847 25.8348 14.9873 25.1632 15.3982 24.7547L16.598 23.5576C16.8903 23.266 17.3104 23.1202 17.6771 23.2437L18.8335 22.0714C18.0149 21.2461 16.6825 21.242 15.8606 22.0632L13.9152 24.0041C13.0923 24.8265 13.0884 26.1628 13.9065 26.9885L15.7582 28.8617C16.576 29.6845 17.9072 29.6912 18.7311 28.87L20.6765 26.9286C21.4985 26.1054 21.5024 24.7716 20.6855 23.9442L19.5261 25.0917ZM19.2579 24.563C18.9801 24.8418 18.5343 24.841 18.2618 24.5581C17.9879 24.2743 17.9901 23.8203 18.2661 23.5399L21.5907 20.161C21.8668 19.8822 22.3117 19.883 22.5851 20.1639C22.8605 20.4456 22.8588 20.9008 22.5817 21.1829L19.2579 24.563Z" fill="#1FDAB5"/>
<path fill-rule="evenodd" clip-rule="evenodd" d="M66.5973 1.99795C77.8653 1.99795 86.9999 10.9523 86.9999 21.9979C86.9999 33.0432 77.8653 41.9979 66.5973 41.9979C55.3292 41.9979 46.1946 33.0432 46.1946 21.9979C46.1946 10.9523 55.3292 1.99795 66.5973 1.99795Z" fill="#18CFAB"/>
<rect x="60" y="17" width="12" height="11" fill="white"/>
</g>
<defs>
<clipPath id="clip0_1_233">
<rect width="88" height="43" fill="white"/>
</clipPath>
</defs>
</svg>
